<svg width="1236" height="294" viewBox="0 0 1236 294" fill="none" xmlns="http://www.w3.org/2000/svg">

        <path d="M46.1874 61.0398C46.6826 62.5556 46.8713 64.1547 46.7427 65.7442C46.6142 67.3336 46.1709 68.8816 45.4386 70.2981C44.7063 71.7146 43.6997 72.9714 42.4772 73.9953C41.2547 75.0192 39.8408 75.7897 38.3178 76.2622C35.2327 77.2689 31.8764 77.0288 28.966 75.5934C26.0556 74.1579 23.8221 71.641 22.743 68.5805C22.2479 67.0647 22.059 65.4656 22.1876 63.8762C22.3161 62.2868 22.7594 60.7388 23.4918 59.3222C24.2241 57.9057 25.2308 56.649 26.4533 55.6251C27.6757 54.6012 29.0897 53.8306 30.6127 53.3582C33.6977 52.3515 37.0541 52.5915 39.9645 54.027C42.8749 55.4624 45.1084 57.9794 46.1874 61.0398Z" fill="#FCB2B1"/>
        <path d="M43.2039 57.7734C42.7811 58.3841 31.9515 51.3602 20.5113 40.5777C9.071 29.7952 0.0504211 21.0565 0.473264 20.5397C0.896107 20.0229 11.0444 27.8924 22.3672 38.6515C33.69 49.4105 43.6268 57.1861 43.2039 57.7734Z" fill="#FCB2B1"/>
        <path d="M17.8353 0.973141C18.54 0.973141 18.0467 7.76213 12.8551 13.9873C7.66356 20.2125 1.10941 22.1623 0.874496 21.481C0.639583 20.7998 6.11308 18.0278 10.7409 12.3194C15.3686 6.61105 17.0366 0.808702 17.8353 0.973141Z" fill="#FCB2B1"/>
        <path d="M26.5495 10.1345C27.2777 10.1345 27.0898 16.8295 21.5693 22.5614C16.0489 28.2932 9.2129 29.0215 9.23639 28.2932C9.25988 27.565 14.8039 25.9441 19.5726 20.7525C24.3413 15.561 25.7742 9.87607 26.5495 10.1345Z" fill="#FCB2B1"/>
        <path d="M94.6753 223.812C92.1943 228.722 87.8822 232.459 82.6697 234.217C77.4572 235.975 71.7624 235.613 66.8146 233.208C64.348 232.077 62.1307 230.467 60.2916 228.471C58.4525 226.476 57.0283 224.135 56.1016 221.584C55.1749 219.033 54.7641 216.324 54.8934 213.613C55.0226 210.903 55.6892 208.245 56.8544 205.794C59.3353 200.884 63.6474 197.147 68.8599 195.389C74.0725 193.631 79.7672 193.993 84.715 196.397C87.1838 197.526 89.4033 199.135 91.2442 201.13C93.0851 203.125 94.5105 205.467 95.4375 208.018C96.3645 210.57 96.7744 213.28 96.6436 215.992C96.5127 218.703 95.8437 221.361 94.6753 223.812Z" fill="#FCB2B1"/>
        <path d="M94.9073 216.363C92.934 216.763 87.4604 195.621 86.2859 169.146C85.1113 142.671 85.0644 121.67 86.9437 121.459C88.823 121.247 92.4641 142.601 93.5447 168.841C94.6253 195.08 96.8805 216.011 94.9073 216.363Z" fill="#FCB2B1"/>
        <path d="M154.014 131.843C154.812 133.323 139.567 141.521 118.424 140.112C109.379 139.702 100.612 136.853 93.0537 131.866C87.2514 127.826 85.5835 123.48 86.3117 123.057C87.0399 122.634 90.0468 125.124 95.7082 127.567C103.064 130.734 110.921 132.579 118.918 133.017C137.852 134.38 153.309 129.682 154.014 131.843Z" fill="#FCB2B1"/>
        <path d="M161.742 234.218C159.266 239.133 154.954 242.874 149.74 244.632C144.525 246.391 138.828 246.026 133.882 243.615C131.418 242.483 129.203 240.874 127.366 238.88C125.529 236.887 124.106 234.548 123.18 232C122.253 229.452 121.842 226.746 121.969 224.038C122.096 221.33 122.76 218.674 123.921 216.224C126.402 211.308 130.719 207.567 135.937 205.808C141.155 204.05 146.855 204.416 151.805 206.828C154.267 207.961 156.479 209.572 158.314 211.567C160.149 213.561 161.569 215.9 162.494 218.448C163.418 220.996 163.827 223.701 163.698 226.408C163.569 229.116 162.904 231.77 161.742 234.218Z" fill="#FCB2B1"/>
        <path d="M162.001 226.77C160.028 227.169 154.531 206.027 153.356 179.553C152.182 153.078 152.135 132.077 154.014 131.842C155.893 131.607 159.534 152.984 160.615 179.247C161.696 205.51 163.951 226.394 162.001 226.77Z" fill="#FCB2B1"/>
        <path d="M155.352 145.796C156.433 147.347 142.385 156.109 122.465 155.475C102.544 154.84 88.919 145.42 90.0466 143.94C90.9862 142.085 104.752 148.004 122.605 148.357C140.459 148.709 154.413 143.893 155.352 145.796Z" fill="#FCB2B1"/>
</svg>
